<svg width="113" height="46" viewBox="0 0 113 46" fill="none" xmlns="http://www.w3.org/2000/svg">
<path d="M33.6009 45H41.0889L23.6809 0.391968H18.3689L0.960938 45H8.38494L12.0969 34.888H29.9529L33.6009 45ZM14.3369 28.68L21.0569 10.376L27.7129 28.68H14.3369Z" fill="white"/>
<path d="M53.6474 45.576C55.1194 45.576 56.7834 45.256 58.3834 44.68V39.304C57.4234 39.624 56.5274 39.752 55.7594 39.752C54.0954 39.752 53.2634 38.92 53.2634 37.256V0.391968H46.6714V37.704C46.6714 43.08 49.5514 45.576 53.6474 45.576Z" fill="white"/>
<path d="M80.1684 39.304C78.7604 39.752 77.4804 40.008 76.3924 40.008C73.8964 40.008 72.4244 38.728 72.4244 36.04V18.76H80.1684V13.448H72.4244V0.711967L65.8324 5.57597V13.448H60.6484V18.76H65.8324V36.616C65.8324 42.952 69.8004 45.576 74.7924 45.576C76.5204 45.576 78.3764 45.256 80.2324 44.68L80.1684 39.304Z" fill="white"/>
<path d="M99.3924 12.872C93.7604 12.872 89.2804 15.048 85.6324 19.528L90.4324 23.56C92.8004 20.296 95.8724 18.632 99.3284 18.632C103.488 18.632 105.984 21.064 105.984 25.16V26.248H98.6244C94.1444 26.248 91.2004 26.76 89.0244 27.848C86.2084 29.256 84.6724 31.944 84.6724 35.528C84.6724 41.544 89.1524 45.576 95.8724 45.576C100.352 45.576 104 43.72 106.048 40.52L106.56 45H112.576V25.16C112.576 17.48 107.584 12.872 99.3924 12.872ZM97.0884 40.008C93.5044 40.008 91.2644 38.344 91.2644 35.656C91.2644 34.312 91.7124 33.224 92.6724 32.584C93.8884 31.624 95.7444 31.304 99.3924 31.304H105.984V31.432C105.984 36.424 102.208 40.008 97.0884 40.008Z" fill="white"/>
</svg>
