<svg xmlns="http://www.w3.org/2000/svg" viewBox="0 0 824.25 1372.81"><g id="Layer_2" data-name="Layer 2"><g id="Design_1_-_A4" data-name="Design 1 - A4"><path d="M1,676.22c-.29-1.27-.61-2.53-.85-3.81-.3-1.59-.1-2.95,2.11-3.41l2.67,3.74c1.89-.31,2.61-1,1.86-2.72-.68-1.5-1.29-3-2.08-4.91l-3.52,1.27c-1.76-1.35.79-4,3.28-3.74l1.86.19v-4.57l-4.48.67c0-15.44,1.65-30.44,4.17-46l4.87,2.22c.44-2,.76-3.93,1.29-5.79.58-2,1-4.3,2.15-6,1.8-2.6,1.18-4.53-.72-6.41.94-2.37,1.82-4.62,2.93-7.44-1.56-.2-3.11-.8-3.49-.37-1.12,1.26-2.5,3-2.47,4.45.07,4.49.59,8.94-.66,13.39-.32,1.16.11,2.54.23,4.37-1-.37-2.18-.49-2.27-.86-.54-2.19-1.33-4.48-1.13-6.65.6-6.19,1.78-12.33,2.45-18.51.39-3.59.47-7.17,2.58-10.33a2.65,2.65,0,0,0,.27-2.25c-2.09-3.46-.41-5.54,2.35-7.41A16.39,16.39,0,0,0,16.57,563l-4.45-1.79L16,551.66c-3.92-3,1.25-6.51-.19-10.3h4c-.06-.45,0-.9-.16-1-1.91-1.11-2.61-2.43-2.16-4.87,1-5.63,1.57-11.35,4.09-16.61a3.38,3.38,0,0,0,.3-1.44c-.08-6.09,1.67-11.8,3.38-17.56,1.38-4.66,2.35-9.44,3.55-14.15.56-2.21,1.23-4.39,1.86-6.59a73.18,73.18,0,0,0,2-7c.43-2.28,3.16-4,1.59-6.74,3.38-6.11,3-13.34,5.82-19.64,1.22-2.66,1.51-5.73,2.46-8.53,3.53-10.29,5.88-21,9.65-31.15,3.55-9.59,6.45-19.46,10.91-28.77,3.17-6.59,5-13.79,7.7-20.64,1.77-4.58,3.9-9,5.88-13.51a37.73,37.73,0,0,1,1.66-3.59c1.09-1.9,2.29-3.73,3.25-5.28,1.09-3.76,1.78-7.48,3.21-10.89,8.29-19.79,18.62-38.55,29.83-56.8,10.57-17.23,21.54-34.2,33.29-50.65,4.88-6.83,10.32-13.25,15.51-19.86S173.7,182.81,179,176.33c2.48-3.05,5.42-5.71,8.07-8.62,7.77-8.53,15.9-16.78,23.16-25.73,10.12-12.49,22.44-22.66,34.12-33.49,6.39-5.91,13.62-10.91,20.56-16.21s14.19-10.65,21.34-15.9c2.88-2.12,5.46-4.91,9.49-4.87a1.54,1.54,0,0,0,1.21-.72c1.76-4.64,6.48-5.93,9.93-8.5A127.31,127.31,0,0,1,334.42,47c13.07-5.39,25.82-11.56,38.75-17.31,6.31-2.8,12.69-5.45,19.09-8,1.18-.48,2.61-.34,3.91-.55,7.32-1.15,14.67-2.17,22-3.54s14.43-3.7,21.76-4.53c20-2.26,40.14-3.14,60.23-.35,3.26.45,6.56.58,9.8,1.09,20,3.12,39.79,7.29,58.94,14,18.09,6.34,35.22,14.7,52,24,8,4.43,14.82,10.44,22.67,15a89.25,89.25,0,0,1,17.55,13.58A8.54,8.54,0,0,0,663,81.92c4.63,2.37,8,6.16,11.58,9.79,8.8,8.9,17.77,17.59,25.82,27.24A398.89,398.89,0,0,1,735.18,168a213.39,213.39,0,0,1,12.91,23.83c5.59,12.63,13.39,24.27,17,37.78,0,.12.25.2,1,.75.56-1.59,1.18-3,1.54-4.43,2.21-8.94,4.28-17.91,6.54-26.84,3.27-12.92,6.75-25.79,10-38.73,2.63-10.55,5.24-21.11,7.44-31.76,3.15-15.32,5.89-30.72,8.87-46.07,2-10.39,2.21-20.91,2.6-31.43.36-9.72,1.06-19.45,1-29.17,0-5.31.29-10.38,2.07-15.41.88-2.49,1.12-5.31,4-6.35,2.47-.88,7.61,1.13,9.22,3.61,2,3.08,3.92,6,4.15,10.15.57,10.38,1.39,20.69.16,31.1-.69,5.84-.26,11.8-.64,17.69a325.24,325.24,0,0,1-6.22,45c-3.61,17.26-7.33,34.51-11.31,51.69-3.24,14-6.88,27.87-10.41,41.79s-7.28,27.68-10.66,41.59c-2.43,10.06-4.43,20.22-6.56,30.35a9.84,9.84,0,0,0-.16,3.89c1.73,8,4,16,5.33,24.05,2.11,12.52,3.87,25.1,5.36,37.7.76,6.35.67,12.81.87,19.22.34,11,.72,22.08.88,33.12a176.05,176.05,0,0,1-4,40.29c-.71,3.21-1,6.5-1.84,9.69-2.15,8.65-8.17,14.62-14.72,20-4,3.27-9,2.62-13.77,1.46a63.92,63.92,0,0,0-6.68-1.4,11.63,11.63,0,0,1-8.51-5.08c-6.66-9-7-19.33-7.17-29.71-.34-21,1.75-41.83,4.34-62.62,1.22-9.8,3-19.56,4.86-29.26,2.68-13.72,5.75-27.37,8.58-41.07,1.12-5.41.42-10.95-.83-16.12-2.76-11.36-6.18-22.57-9.61-33.76a288.77,288.77,0,0,0-26.41-60.17,311.32,311.32,0,0,0-39.13-53.35c-5.2-5.73-10.84-11.06-16.36-16.48-1.6-1.57-3.19-3.62-5.39-2.46-1.84-2.22-3.19-4.51-5.12-6.07a321.86,321.86,0,0,0-57.94-37.66c-11-5.49-22.38-10.48-34.49-13.46-5.9-1.45-11.52-4.18-17.47-5.35-11.79-2.33-23.39-5.89-35.51-6.3-10.71-.36-21.44-.57-32.16-.74-2.58,0-5.33,0-6.61,3.58-2.32-3.91-5.66-3.17-8.62-2.81-7.36.92-14.68,2.18-22,3.27-13.75,2.06-27.08,5.92-40.34,9.86C381.4,59,369.47,62.63,358.37,67.87c-8,3.76-16.47,6.6-24,11.22-11.52,7.06-22.85,14.44-34.25,21.69-2.62,1.67-5.58,3-6,5.89-2.62,1.37-5,2.16-6.8,3.63-10.76,8.7-21.54,17.39-32,26.43-8.23,7.09-16.39,14.33-23.93,22.15-9.94,10.31-19.49,21-28.74,32-10.65,12.58-20.95,25.47-31.08,38.46-5.66,7.26-10.85,14.9-16,22.58-7,10.55-14.11,21.08-20.5,32-6.81,11.67-12.95,23.74-19.17,35.75q-8.06,15.57-15.56,31.42c-2.28,4.82-3.9,10-6.1,15.71,2.31,0,3.89-.1,5.46,0,3.45.28,4.5,1.81,4.28,5.35-.08,1.23.55,2.48.81,3.74.21,1,.36,2.1.54,3.15a34.48,34.48,0,0,1-3.62.47c-4.11.13-7.43-1.62-10.52-5.32-1.37,3-2.64,5.44-3.59,8C82.39,396,77.47,410,72.11,423.75c-5.29,13.59-8.61,27.74-12.6,41.7-4.61,16.1-9.23,32.2-13.48,48.39-2,7.42-2.92,15.09-4.51,22.61-1.15,5.43-2.71,10.77-3.84,16.21s-2.07,11-2.89,16.51c-.66,4.49-.52,4.51-5.45,6l4.77,1-4.51,3.45,3.2,1.39-4.7,2.59,0,.45,3.93-.76c-.86,6.48-1.61,12.47-2.46,18.44-1,6.79-2,13.58-3.1,20.34-.69,4.16-1.65,8.28-2.44,12.43a16.44,16.44,0,0,0-.05,7.16,21,21,0,0,1-.48,11.15c-1.22,3.47-.62,6.76-1,10.1-.38,3.76-.54,7.55-.67,11.33-.35,10.31-.23,20.67-1.08,30.94-.59,7.06.23,14-.08,21-.16,3.77.08,7.59-.49,11.29-.31,2-1.95,3.78-3.17,6l3.8,1c.23,3.32.94,6.78.56,10.12-.36,3.12,1.72,7.08-2.58,9.1,4.53,4.37,4.62,5.46.92,10.06,2.58,4.89,2.62,10.26,2.88,15.71.22,4.68,1.58,9.32,2.45,14a12.51,12.51,0,0,0,.42,1.93c1,2.59-1.86,4.94,0,7.92,1.34,2.16,1.09,5.32,1.47,8.05s.53,5.53,1,8.25c1.42,8.25,3.37,16.42,4.3,24.72a188.45,188.45,0,0,0,3,20.43c.66,2.92.68,5.87,2.15,8.72.92,1.77.75,4.2.76,6.33A26.49,26.49,0,0,0,40.77,901c.72,1.57,1.67,3.12.49,5.09-.42.68.23,2.1.57,3.13,1.11,3.43,2.49,6.78,3.43,10.24q3.8,14,7.27,28.08c1.1,4.45,1.83,9,2.79,13.46.37,1.75.92,3.46,1.38,5.19.53,2.05,1.07,4.1,1.59,6.15a17.81,17.81,0,0,0,.81,3.33c2.74,5.65,3.85,11.78,5.69,17.69,3.38,10.83,7.26,21.51,11.27,32.13,3.19,8.45,6.93,16.69,10.35,25,3.06,7.48,5.86,15.07,9.07,22.48,4.38,10.11,8.74,20.26,13.67,30.11,6,11.91,12.13,23.76,18.92,35.21q13.22,22.34,27.61,44a606.22,606.22,0,0,0,42.13,55.47c11.81,14,25.17,26.55,39.23,38.26a439.29,439.29,0,0,0,55.07,39.06c13,7.83,26.48,14.79,40.17,21.34,3.7,1.76,7.76,2.75,11.59,4.27,11.3,4.5,23.06,7.59,34.72,10.88,8.2,2.32,16.81,3.27,25.27,4.59,6.35,1,12.75,1.69,19.15,2.3,4.09.4,8.23.37,12.34.58a13.93,13.93,0,0,1,2.43.69c-7.42,2.73-14.36-.24-21,1.9h27l-.71-3.05c4.13-.47,8.17-1,12.21-1.4,9-1,18-1.63,27-2.88,23.16-3.24,45.34-10.08,66.81-19.21,10.29-4.38,20.66-8.75,30.42-14.17,10.62-5.91,20.74-12.77,30.74-19.69,8.26-5.71,15.88-12.33,24.06-18.16,20.57-14.68,37.38-33.24,54.1-51.9,1.3-1.46,3.53-2.8,2.08-5.18,1.36-.89,3.08-1.48,4-2.69a293.8,293.8,0,0,0,21.61-32.47c3.39-6.1,7.42-11.86,10.77-18,3.47-6.34,6.61-12.88,9.65-19.45,4.1-8.83,6.54-18.24,9.2-27.58,3.05-10.74,6.17-21.47,9.25-32.21,2.09-7.27,4.47-14.48,6.16-21.84a372.91,372.91,0,0,0,7.68-44.67c1.91-18,2.34-36.15,2.77-54.27.28-11.75-1.27-23.33-1.79-35-.21-4.57-.07-9.15-.22-13.72-.06-1.61-.58-3.2-.78-4.81-1.11-9.33-2.1-18.67-3.32-28-1-7.47-2.08-14.94-3.41-22.36-1.84-10.38-3.56-20.8-6-31-4-16.83-8.65-33.53-13-50.28-2.9-11.16-7.35-21.82-10.58-32.86-5.7-19.54-13.7-38.19-22.25-56.56a436.38,436.38,0,0,0-26.94-49.49,386.08,386.08,0,0,0-22.35-32c-7.28-9.29-14.48-18.68-22.32-27.49-7.66-8.62-16-16.68-24.21-24.77-7.16-7-14.69-13.7-21.91-20.67-8-7.69-16.94-14.13-26-20.28a346.65,346.65,0,0,0-51.74-29.19c-7-3.17-14.49-5.49-21.4-8.9-9-4.43-18.55-6.82-28-9.47A262,262,0,0,0,432,469.09c-14.28-2-28.63-1.43-42.91-2.53-2.76-.21-5.58.39-8.38.51A250.38,250.38,0,0,0,329,474.79a223.19,223.19,0,0,0-28.14,9.38c-11,4.46-21.77,9.51-32.33,14.89-7,3.58-13.48,8.28-20.28,12.35-8.36,5-15.63,11.36-22.7,18-10.2,9.56-20.1,19.41-28.61,30.55-4.38,5.74-8.12,12.07-13.13,17.18-7,7.18-12.18,15.53-17.11,24-7.68,13.23-14.8,26.79-22.07,40.26-2.11,3.9-4,7.94-5.91,11.94a260.84,260.84,0,0,0-15.51,41.08c-3,10.27-6.11,20.51-8.61,30.9-2,8.31-3.27,16.81-4.66,25.25-1.26,7.65-2.57,15.3-3.26,23-.85,9.36-.81,18.79-1.64,28.16-1,11.39,0,22.69.73,34,.47,6.8.55,13.64,1.28,20.41.81,7.52,1.92,15,3.32,22.46A403.31,403.31,0,0,0,123.73,929c2.89,8.87,7.25,17.26,11,25.87,6.55,15.17,15.48,29,24.62,42.64,8.48,12.69,19.06,23.51,29.42,34.55,6,6.36,11.79,12.89,19.11,17.84a20.52,20.52,0,0,1,5,4.78c3.89,5.33,9.6,8.51,14.73,12.23a294.1,294.1,0,0,0,25.74,16.7c10.12,5.85,20.56,11.16,31,16.41a231.46,231.46,0,0,0,42.07,15.83c11.41,3.17,23.2,5.13,34.9,7.13,18.29,3.14,36.77,3.77,55.28,3,22-.93,43.7-3.82,64.89-10,27-7.81,53.49-17,78.31-30.32,16.52-8.84,32.94-18,47.32-30.32,5.26-4.49,11-8.47,16-13.23,6.08-5.78,11.82-12,17.32-18.3a136.06,136.06,0,0,0,18.57-28.48,94.87,94.87,0,0,0,7.41-21.88c1.06-4.79,3.19-9.31,2.38-14.46a79.24,79.24,0,0,0-8.56-25.71c-2.5-4.63-5.22-9.16-8-13.59a20.9,20.9,0,0,0-4.57-5.16c-12.07-9.46-23.91-19.27-36.5-28a108.86,108.86,0,0,0-23.37-11.74c-15.1-5.73-30.32-11.43-46.31-14.25-14.45-2.55-29-4.49-43.52-6.71-5-.76-10-1.72-15.08-2.25a91.65,91.65,0,0,0-9.81-.07,10.8,10.8,0,0,1-2,0c-14.56-2.78-29.29-1.93-44-1.69-13.69.22-27.37,1-41,1.84-12.6.79-25.09,2.69-37.57,4.65-1.79.28-3.59.49-5.39.69L326.5,859c.48,1.36.52,2.5,1.11,3,2.66,2.18,5.25,4.64,8.28,6.14a86.87,86.87,0,0,1,16.76,10.22c2.75,2.22,6.46,3.2,9.59,5,9.32,5.32,18.61,10.68,27.81,16.19,20,11.95,39.91,23.89,59.73,36.07a204.36,204.36,0,0,1,19,13.28c4.12,3.24,7.38,7.36,8.65,12.81,1,4.22-.2,8.5-3.71,10.91a3.16,3.16,0,0,1-1.31.65c-7.54.64-14.79,3.86-22.69,1.43-8.17-2.5-16.8-3.6-24.81-6.5-3.66-1.32-7.88-4-8.37-9.27-.12-1.22-1-2.38-1.54-3.68l3.39-6.78c-1.55-1.13-2.9-2.3-4.41-3.2q-38.84-23.25-77.72-46.41c-9.06-5.37-18.4-10.24-27.45-15.62-7.07-4.2-13.91-8.81-20.82-13.28-4.42-2.85-7.32-7.1-9.72-11.59s-.28-9.61,4.25-11.87c7-3.49,14.39-5.09,22.14-5.94,9.33-1,18.58-2.79,27.87-4.19,2.28-.35,4.58-.54,6.87-.82,11.79-1.43,23.56-3.07,35.37-4.26,10.13-1,20.32-1.38,30.46-2.32,21.26-2,42.56-1.64,63.83-.86a501.11,501.11,0,0,1,68.87,7.47A361.77,361.77,0,0,1,584,846.7c19,6,37.06,14.06,53,26.2,11.24,8.57,22.92,16.68,32.69,27.05a82.94,82.94,0,0,1,18.92,32.67,125.74,125.74,0,0,1,3.77,15.31A55.25,55.25,0,0,1,690,977.64c-2.42,6.47-4.26,13.17-6.87,19.56a146.61,146.61,0,0,1-7.18,14.07c-10.4,19.23-24.4,35.51-40.57,50.11a309.48,309.48,0,0,1-37.41,28.34c-6.58,4.35-13.7,7.91-20.65,11.7-14.89,8.13-30.57,14.53-46.48,20.21-14.71,5.25-29.59,10.23-44.73,14a314.9,314.9,0,0,1-43.72,8,323.33,323.33,0,0,1-45,1.59c-9-.34-18.1-1.23-27.1-2.31-12.25-1.48-24.52-2.93-36.63-5.23a272.11,272.11,0,0,1-28.7-7.52A295,295,0,0,1,249.84,1107c-10.7-5.85-21-12.38-31.44-18.75-2.21-1.36-5-2.53-4.05-6.42.24-1-2-2.7-3.36-3.85s-2.94-1.6-4.05-2.75c-2.19-2.26-4.45-3.31-7.57-1.27-7.39-6.87-14.72-13.51-21.84-20.36-6.06-5.82-12.09-11.71-17.79-17.88-11.64-12.61-22.38-25.93-30.9-40.93-3.49-6.14-7.4-12-10.71-18.28-6.39-12.06-12.71-24.23-16.95-37.21-5-15.15-9.75-30.45-13.2-46-3.13-14.11-4.5-28.61-6.38-43A295,295,0,0,1,79.72,795a421.7,421.7,0,0,1,5.8-49.39c1.89-10.73,4-21.38,6.83-31.89,2-7.41,3.74-14.91,6-22.23,2.19-7,4.75-13.8,7-20.74,1.64-5,4.23-9.66,5.44-14.71,1.62-6.74,5.53-12.41,7.83-18.83A119.32,119.32,0,0,1,127.51,619c3.94-7,8.44-13.69,12.62-20.56,4.1-6.71,8.05-13.51,12.17-20.21,3.19-5.18,6.34-10.39,9.88-15.32,2.09-2.9,5.09-5.13,7.34-7.93,5-6.28,10.36-12.35,15.47-18.54,11.5-13.94,24.85-25.8,38.8-37,7.28-5.85,15.65-10.31,23.26-15.77,8.08-5.8,17-10,25.83-14.36,11.27-5.56,23.29-9.09,35-13.44a207.43,207.43,0,0,1,45.6-11.11c11.09-1.45,22.33-1.9,33.51-2.59,15.87-1,31.67.43,47.4,2.33,10.63,1.29,21.2,3.19,31.74,5.12,3.69.67,7.22,2.29,10.84,3.4a380.22,380.22,0,0,1,73,31.43c7.76,4.33,15.07,9.51,22.48,14.45,6.3,4.2,12.6,8.43,18.62,13,5.36,4.07,10.42,8.56,15.47,13a362,362,0,0,1,34,33.71c2.56,2.95,6,5.17,8.79,7.9a83.43,83.43,0,0,1,7,7.53,177.6,177.6,0,0,0,15,16.33c4.34,4.15,7.61,9.48,11,14.51,9.26,13.65,18.46,27.34,27.44,41.17,2.85,4.4,4.89,9.32,7.35,14,4.83,9.18,10.06,18.16,14.47,27.54a439.72,439.72,0,0,1,19.41,48.07c4.53,13.61,9.85,26.95,14.36,40.57,2.95,8.91,5.08,18.09,7.59,27.15,2.86,10.33,6,20.6,8.5,31a238.54,238.54,0,0,1,4.65,24.26c2.36,17.32,4.53,34.67,6.36,52,1.32,12.47,2.31,25,2.83,37.51.67,16.14,1.47,32.33.86,48.44a386.09,386.09,0,0,1-8.75,70.1c-3.35,14.94-6.65,29.91-10.65,44.69-3,11.11-6.89,22-10.74,32.84a233,233,0,0,1-9.47,23.34c-3.13,6.47-7.27,12.45-11,18.64-.51.84-1.24,1.57-1.67,2.45-3.64,7.45-8.5,14.1-13.46,20.69-7.83,10.41-15.12,21.26-23.4,31.29-8.07,9.77-17,18.84-25.74,28.06-3,3.22-6.66,5.91-9.91,9-2,1.87-4.27,3.49-4.87,6.59-.24,1.24-1.75,2.34-2.87,3.28-15.92,13.43-32.45,26-50.73,36.11-12.28,6.78-24.44,13.84-37.08,19.86a310.28,310.28,0,0,1-55.1,20.26,286.72,286.72,0,0,1-39.37,7.12c-12.73,1.49-25.56,2.58-38.47,1.51-7.38-.61-14.85-.14-22.24-.62-10.2-.67-20.4-1.51-30.54-2.75a202.07,202.07,0,0,1-36.63-8c-12.39-3.94-24.74-8.06-36.88-12.7-6.24-2.39-12.05-5.93-17.92-9.19-8.76-4.87-17.5-9.79-26-15-5.17-3.15-10-6.94-15-10.34-3.64-2.47-7.47-4.67-11.07-7.19-1.86-1.31-3.36-3.12-5.13-4.59-5.81-4.83-11.68-9.6-17.51-14.42-1.37-1.14-2.66-2.38-4-3.59s-2.23-2.68-3.65-3.28c-5.6-2.35-9.67-6.71-13.81-10.73-9-8.7-17.37-18-26-27a6,6,0,0,1-1.45-2c-3.11-8.64-10.79-14-15.51-21.42-7.72-5-11.34-13.46-16.38-20.57-7.78-11-14.44-22.69-21.76-34-10.22-15.77-18.32-32.73-27.73-48.94a327.69,327.69,0,0,1-18.08-36.82c-2.83-6.67-5.34-13.48-8.11-20.17-2.19-5.3-4.89-10.42-6.78-15.82-5.25-15-10.26-30-15.25-45.07q-3.47-10.46-6.53-21c-3.41-11.75-7.78-23.27-9.12-36.27,1,.75,2,1.08,2.24,1.69a43.18,43.18,0,0,1,2.39,8.51,25.82,25.82,0,0,0,3.25,9.12c1.26,2.37.82,5.59,1.4,8.38a69.51,69.51,0,0,0,2.4,9c.73,2.08,1.55,4.44,5.35,3.9-3.07,4.31-1.7,7.76-.32,11.56,2.67,7.39,4.65,15,7,22.51.28.85,1.45,1.41,2.2,2.1.52-.87,1.58-1.82,1.47-2.61a40,40,0,0,0-1.78-7.19c-1.31-3.86-3.44-7.46-3.51-11.73a3.8,3.8,0,0,0-1.23-2.64c-3.19-2.41-3-6-3.34-9.29a25.64,25.64,0,0,0-2.81-9.87c-1-1.88-.88-4.38-1.42-6.57-.66-2.68-1.5-5.31-2.22-8-1.78-6.62-3.74-13.2-5.27-19.88-2.14-9.35-3.93-18.77-6-28.14-.25-1.15-1.11-2.17-2.1-4-1.48,3.36-.81,5.91-.81,8.39,0,.63.52,1.31.4,1.89s-.75,1.91-1.07,1.88c-.84-.09-2.21-.56-2.36-1.13-1.31-5.09-2.42-10.23-3.56-15.36-.06-.29.21-.64.2-1,0-1.22-2.75-2.27-.63-3.41,1.13-.62,3,.14,4.55.27l.9.06c-.16-3.19-3-6.33-.2-9.6.12-.13-.14-.57-.22-.87-2.64-10.15-5.26-20.3-6-30.84-.21-2.9-2.11-5.76.79-8.13-3.69-3.53-5.08-15.27-2.7-20.9-3.8-2.21-4.47-5.72-3.28-9.65.44-1.48,0-2.25-.65-3.5-1.17-2.23-1.66-4.81-2.47-7.35,1.34-1.69,4.23,1.38,5.63-1.78l-5.59-1.24c0-4.73-1.52-9.09-1.17-14,.27-3.85-.89-8-.63-12.14.11-1.58,0-3.21-2.09-3.21a2.78,2.78,0,0,0-3.09,3.09c0,.51.12,1,.18,1.52l.08,0c-2.43.38-3.34-1-3.39-3.12-.07-3.9,0-7.81,0-11.17l7.28-4.6c-.61-3.07-1.8-5.58-1.37-7.78s2.45-4.07,4.1-6.57l-5.08-4c1.11-3.37,3.7,0,5.9-1.46.14-.93.37-2.4.72-4.63-1.48,1.45-2.15,2.59-3.12,3-2.43.94-3.94-.33-3.51-2.84.17-1.05,1.16-1.84,0-3.1-.54-.6-.17-2-.21-3.05l3.13.32,1.51.18,1.76-4.39-.77-.52L6,729.47c-2.81-4.71.46-9.79-1.08-14.32l3.79-1.36c-4.15-2.95-4.59-3.79-2.88-8.24,1.23-3.19.08-6.32.25-9.45.24-4.15-1-8.32.08-12.61A8.21,8.21,0,0,0,5,677.85c-.65-1.05-2.76-1.19-4.22-1.74ZM25.34,562.76H22.17l.13.82,3-.85c.56-1,1.33-2.05-1-3.52C24.8,561,25.08,561.88,25.34,562.76ZM758.41,434.29c.68-.54,1.31-.78,1.39-1.14,1.13-5.48,3-10.95,3.13-16.46.39-16.64.18-33.29.06-49.94,0-4.9-.55-9.79-.84-14.69C757.49,371.82,755.27,427.78,758.41,434.29ZM63.26,1037.86c1.8,5.29,3.13,9.63,4.76,13.85s3.67,8.39,5.39,12.63c2.55,6.3,4.78,10.58,6.3,11.38-.87-3.2-1.31-6.37-2.6-9.15-3.38-7.3-7-14.46-8.74-22.42A16.29,16.29,0,0,0,66,1039.3C65.66,1038.75,64.7,1038.58,63.26,1037.86Zm.75-2.26c-1-4.25-1.9-8-2.83-12-2.81-.53-3.64-.14-3,1.83,1.06,3.22,2.5,6.32,3.86,9.44C62.17,1035.19,62.87,1035.22,64,1035.6ZM90.27,1101c.48,4.49,3.67,6.82,6.81,9.83C97.65,1105.27,94.11,1103.14,90.27,1101ZM392,1359.19c0-.27.07-.53.1-.8l-13.31-1.73-.12.94Zm-369.54-814c-3.27.27-4.44,1.16-4.15,3.24A2.61,2.61,0,0,0,19.69,550c.33.15,1.3-.36,1.49-.79A36.44,36.44,0,0,0,22.45,545.22Zm8.84-48.52C32,494,32.49,492,33,490,28.68,493.63,28.68,493.63,31.29,496.7ZM16.35,582.48l-1.12.19-.93,4.12,1,.7c.9-.68,2.37-1.25,2.52-2.07S16.9,583.47,16.35,582.48Zm-.3,212.9c-2.43,1.45-2.38,3-.9,5.08C16.79,798,16.79,798,16.05,795.38ZM28.11,565.9c-3.42.48-3.42.48-4.71,3.06Zm-11,40.76,1.31.86c.47-.84,1-1.67,1.36-2.54,0-.08-.71-.49-1.08-.75Zm2.42-38.88L15,569.57C17.56,570.36,18.7,570.42,19.5,567.78Zm0-8.75a8.82,8.82,0,0,0-.92-1.33,7,7,0,0,0-1.8,1.08,2.35,2.35,0,0,0,.52,1.06A16.19,16.19,0,0,0,19.5,559Zm-2.92,13.06c-.78.95-1.41,1.37-1.46,1.86s.5,1,.78,1.52c.45-.4,1.09-.74,1.27-1.23S16.91,573.2,16.58,572.09Zm-9.81,78c0-.39,0-.79-.07-1.18l-2.77.36c0,.27,0,.54,0,.82Zm15.09-49.68v-.91H19.27v.91Zm389.34,761,.15-1h-5l-.05.55ZM20.57,556.09c.3-.54.71-.94.68-1.3a1.2,1.2,0,0,0-.91-.74c-.34,0-.66.47-1,.73Zm7.88-55.64a14.1,14.1,0,0,0,.59-1.59,2,2,0,0,0-.69-.37c-.32.45-.59.94-.87,1.42Zm14.23-43.14h-.49v2l.49,0ZM23.77,865.82a4.59,4.59,0,0,0,1.2.59c.16,0,.55-.45.51-.63a3.36,3.36,0,0,0-.6-.95ZM399.7,1360c0-.21,0-.42,0-.64l-2.47-.14,0,.62ZM7.36,653.16c-.32-.33-.64-.75-.7-.71a6.35,6.35,0,0,0-1,.78c.2.2.46.6.59.56A4.85,4.85,0,0,0,7.36,653.16Z"/></g></g></svg>