<svg width="204" height="47" viewBox="0 0 204 47" fill="none" xmlns="http://www.w3.org/2000/svg">
<path d="M36.8072 14.904V16.2C39.9752 16.2 40.7672 16.632 40.7672 17.64C40.7672 19.584 35.1512 27.648 31.7672 31.896C28.3112 26.712 23.9192 22.32 19.2392 19.152C24.4952 16.56 27.3752 13.32 27.3752 10.008C27.3752 5.90397 23.5592 3.02397 18.2312 3.02397C12.3272 3.02397 8.43917 6.33597 8.43917 11.376C8.43917 14.472 10.4552 18.072 13.5512 20.736C4.47917 24.408 0.951172 28.224 0.951172 34.128C0.951172 40.824 6.06317 46.008 12.6152 46.008C17.7272 46.008 23.7032 42.768 29.0312 37.08C32.9912 44.352 34.2152 46.008 38.6792 46.008C41.4152 46.008 44.4392 44.712 47.5352 42.264L46.8872 41.112C44.5112 42.768 42.7112 43.56 41.2712 43.56C37.8152 43.56 36.5912 39.24 32.6312 33.12C38.3912 26.424 41.9912 19.008 43.4312 17.568C44.4392 16.56 45.5192 16.2 49.5512 16.2V14.904H36.8072ZM6.85517 33.264C6.85517 28.8 9.08717 25.416 14.5592 21.6C20.6072 25.776 25.0712 30.528 28.2392 35.856C25.1432 39.6 19.7432 42.408 15.5672 42.408C10.3832 42.408 6.85517 38.736 6.85517 33.264ZM22.9832 10.512C22.9832 14.112 21.6152 16.344 18.3032 18.288C14.7752 15.624 12.9752 12.672 12.9752 9.64797C12.9752 6.47997 14.7752 4.46397 17.7272 4.46397C20.8952 4.46397 22.9832 6.83997 22.9832 10.512Z" fill="white"/>
<path d="M56.6603 45H73.3643C82.4523 45 87.7643 40.264 87.7643 32.136C87.7643 26.44 85.1403 22.664 80.2123 21.064C83.5403 19.336 85.4603 15.944 85.4603 11.592C85.4603 4.55197 80.2763 0.391968 71.5723 0.391968H56.6603V45ZM63.5083 18.696V6.72797H71.5723C76.0523 6.72797 78.6123 8.90397 78.6123 12.808C78.6123 16.584 76.1803 18.696 71.8923 18.696H63.5083ZM63.5083 38.664V24.904H73.2363C78.1643 24.904 80.9163 27.336 80.9163 31.56C80.9163 36.04 77.9083 38.664 72.7883 38.664H63.5083Z" fill="white"/>
<path d="M107.344 12.872C101.712 12.872 97.2318 15.048 93.5838 19.528L98.3838 23.56C100.752 20.296 103.824 18.632 107.28 18.632C111.44 18.632 113.936 21.064 113.936 25.16V26.248H106.576C102.096 26.248 99.1518 26.76 96.9758 27.848C94.1598 29.256 92.6238 31.944 92.6238 35.528C92.6238 41.544 97.1038 45.576 103.824 45.576C108.304 45.576 111.952 43.72 114 40.52L114.512 45H120.528V25.16C120.528 17.48 115.536 12.872 107.344 12.872ZM105.04 40.008C101.456 40.008 99.2158 38.344 99.2158 35.656C99.2158 34.312 99.6638 33.224 100.624 32.584C101.84 31.624 103.696 31.304 107.344 31.304H113.936V31.432C113.936 36.424 110.16 40.008 105.04 40.008Z" fill="white"/>
<path d="M129.249 7.30397H136.289V0.391968H129.249V7.30397ZM129.505 45H136.097V13.448H129.505V45Z" fill="white"/>
<path d="M141.719 45H149.783L157.143 33.672L164.503 45H172.567L161.495 29.128L172.567 13.448H164.503L157.143 24.648L149.783 13.448H141.719L152.727 29.128L141.719 45Z" fill="white"/>
<path d="M189.844 12.872C184.212 12.872 179.732 15.048 176.084 19.528L180.884 23.56C183.252 20.296 186.324 18.632 189.78 18.632C193.94 18.632 196.436 21.064 196.436 25.16V26.248H189.076C184.596 26.248 181.652 26.76 179.476 27.848C176.66 29.256 175.124 31.944 175.124 35.528C175.124 41.544 179.604 45.576 186.324 45.576C190.804 45.576 194.452 43.72 196.5 40.52L197.012 45H203.028V25.16C203.028 17.48 198.036 12.872 189.844 12.872ZM187.54 40.008C183.956 40.008 181.716 38.344 181.716 35.656C181.716 34.312 182.164 33.224 183.124 32.584C184.34 31.624 186.196 31.304 189.844 31.304H196.436V31.432C196.436 36.424 192.66 40.008 187.54 40.008Z" fill="white"/>
</svg>
