<svg width="322" height="47" viewBox="0 0 322 47" fill="none" xmlns="http://www.w3.org/2000/svg">
<path d="M33.6009 45H41.0889L23.6809 0.391968H18.3689L0.960938 45H8.38494L12.0969 34.888H29.9529L33.6009 45ZM14.3369 28.68L21.0569 10.376L27.7129 28.68H14.3369Z" fill="white"/>
<path d="M53.6474 45.576C55.1194 45.576 56.7834 45.256 58.3834 44.68V39.304C57.4234 39.624 56.5274 39.752 55.7594 39.752C54.0954 39.752 53.2634 38.92 53.2634 37.256V0.391968H46.6714V37.704C46.6714 43.08 49.5514 45.576 53.6474 45.576Z" fill="white"/>
<path d="M80.1684 39.304C78.7604 39.752 77.4804 40.008 76.3924 40.008C73.8964 40.008 72.4244 38.728 72.4244 36.04V18.76H80.1684V13.448H72.4244V0.711967L65.8324 5.57597V13.448H60.6484V18.76H65.8324V36.616C65.8324 42.952 69.8004 45.576 74.7924 45.576C76.5204 45.576 78.3764 45.256 80.2324 44.68L80.1684 39.304Z" fill="white"/>
<path d="M99.3924 12.872C93.7604 12.872 89.2804 15.048 85.6324 19.528L90.4324 23.56C92.8004 20.296 95.8724 18.632 99.3284 18.632C103.488 18.632 105.984 21.064 105.984 25.16V26.248H98.6244C94.1444 26.248 91.2004 26.76 89.0244 27.848C86.2084 29.256 84.6724 31.944 84.6724 35.528C84.6724 41.544 89.1524 45.576 95.8724 45.576C100.352 45.576 104 43.72 106.048 40.52L106.56 45H112.576V25.16C112.576 17.48 107.584 12.872 99.3924 12.872ZM97.0884 40.008C93.5044 40.008 91.2644 38.344 91.2644 35.656C91.2644 34.312 91.7124 33.224 92.6724 32.584C93.8884 31.624 95.7444 31.304 99.3924 31.304H105.984V31.432C105.984 36.424 102.208 40.008 97.0884 40.008Z" fill="white"/>
<path d="M155.434 14.904V16.2C158.602 16.2 159.394 16.632 159.394 17.64C159.394 19.584 153.778 27.648 150.394 31.896C146.938 26.712 142.546 22.32 137.866 19.152C143.122 16.56 146.002 13.32 146.002 10.008C146.002 5.90397 142.186 3.02397 136.858 3.02397C130.954 3.02397 127.066 6.33597 127.066 11.376C127.066 14.472 129.082 18.072 132.178 20.736C123.106 24.408 119.578 28.224 119.578 34.128C119.578 40.824 124.69 46.008 131.242 46.008C136.354 46.008 142.33 42.768 147.658 37.08C151.618 44.352 152.842 46.008 157.306 46.008C160.042 46.008 163.066 44.712 166.162 42.264L165.514 41.112C163.138 42.768 161.338 43.56 159.898 43.56C156.442 43.56 155.218 39.24 151.258 33.12C157.018 26.424 160.618 19.008 162.058 17.568C163.066 16.56 164.146 16.2 168.178 16.2V14.904H155.434ZM125.482 33.264C125.482 28.8 127.714 25.416 133.186 21.6C139.234 25.776 143.698 30.528 146.866 35.856C143.77 39.6 138.37 42.408 134.194 42.408C129.01 42.408 125.482 38.736 125.482 33.264ZM141.61 10.512C141.61 14.112 140.242 16.344 136.93 18.288C133.402 15.624 131.602 12.672 131.602 9.64797C131.602 6.47997 133.402 4.46397 136.354 4.46397C139.522 4.46397 141.61 6.83997 141.61 10.512Z" fill="white"/>
<path d="M175.287 45H191.991C201.079 45 206.391 40.264 206.391 32.136C206.391 26.44 203.767 22.664 198.839 21.064C202.167 19.336 204.087 15.944 204.087 11.592C204.087 4.55197 198.903 0.391968 190.199 0.391968H175.287V45ZM182.135 18.696V6.72797H190.199C194.679 6.72797 197.239 8.90397 197.239 12.808C197.239 16.584 194.807 18.696 190.519 18.696H182.135ZM182.135 38.664V24.904H191.863C196.791 24.904 199.543 27.336 199.543 31.56C199.543 36.04 196.535 38.664 191.415 38.664H182.135Z" fill="white"/>
<path d="M225.971 12.872C220.339 12.872 215.859 15.048 212.211 19.528L217.011 23.56C219.379 20.296 222.451 18.632 225.907 18.632C230.067 18.632 232.563 21.064 232.563 25.16V26.248H225.203C220.723 26.248 217.779 26.76 215.603 27.848C212.787 29.256 211.251 31.944 211.251 35.528C211.251 41.544 215.731 45.576 222.451 45.576C226.931 45.576 230.579 43.72 232.627 40.52L233.139 45H239.155V25.16C239.155 17.48 234.163 12.872 225.971 12.872ZM223.667 40.008C220.083 40.008 217.843 38.344 217.843 35.656C217.843 34.312 218.291 33.224 219.251 32.584C220.467 31.624 222.323 31.304 225.971 31.304H232.563V31.432C232.563 36.424 228.787 40.008 223.667 40.008Z" fill="white"/>
<path d="M247.876 7.30397H254.916V0.391968H247.876V7.30397ZM248.132 45H254.724V13.448H248.132V45Z" fill="white"/>
<path d="M260.346 45H268.41L275.77 33.672L283.13 45H291.194L280.122 29.128L291.194 13.448H283.13L275.77 24.648L268.41 13.448H260.346L271.354 29.128L260.346 45Z" fill="white"/>
<path d="M308.471 12.872C302.839 12.872 298.359 15.048 294.711 19.528L299.511 23.56C301.879 20.296 304.951 18.632 308.407 18.632C312.567 18.632 315.063 21.064 315.063 25.16V26.248H307.703C303.223 26.248 300.279 26.76 298.103 27.848C295.287 29.256 293.751 31.944 293.751 35.528C293.751 41.544 298.231 45.576 304.951 45.576C309.431 45.576 313.079 43.72 315.127 40.52L315.639 45H321.655V25.16C321.655 17.48 316.663 12.872 308.471 12.872ZM306.167 40.008C302.583 40.008 300.343 38.344 300.343 35.656C300.343 34.312 300.791 33.224 301.751 32.584C302.967 31.624 304.823 31.304 308.471 31.304H315.063V31.432C315.063 36.424 311.287 40.008 306.167 40.008Z" fill="white"/>
</svg>
