<svg width="81" height="65" viewBox="0 0 81 65" fill="none" xmlns="http://www.w3.org/2000/svg">
<path fill-rule="evenodd" clip-rule="evenodd" d="M0.0022148 32.5L0 65H40.4999H81V32.5V0H40.5021H0.00442959L0.0022148 32.5ZM77.3228 17.0408L77.3631 30.365H40.5017H3.64003V17.1067C3.64003 9.81453 3.68765 3.80068 3.74587 3.74264C3.80409 3.68444 20.3735 3.65471 40.567 3.67669L77.2823 3.71654L77.3228 17.0408ZM12.2123 7.39355C10.7388 11.1163 8.37418 17.1472 6.92649 20.8759C6.5718 21.7892 6.04784 23.1261 5.76197 23.8466L5.24244 25.1569L6.83663 25.1118L8.43066 25.0669L9.17135 23.0109L9.91204 20.955L13.7764 20.9128L17.6408 20.8705L18.4163 23.0083L19.1918 25.146H20.7497C21.6065 25.146 22.3077 25.1102 22.3077 25.0666C22.3077 25.0231 21.9577 24.1156 21.5301 23.0502C21.1025 21.9849 20.131 19.5119 19.371 17.5547C18.6112 15.5976 17.5305 12.8221 16.9695 11.3869C16.4085 9.95164 15.725 8.19111 15.4505 7.47468L14.9514 6.172L13.8245 6.16994L12.6975 6.16788L12.2123 7.39355ZM24.0822 14.8383L24.127 23.5088L24.5614 24.1648C25.276 25.244 26.3907 25.6086 28.0049 25.2912L28.9521 25.1049L28.9522 23.9788V22.8528L28.2008 22.9026C27.7153 22.9349 27.3372 22.8694 27.1328 22.7177C26.8245 22.4891 26.8153 22.2732 26.7727 14.3255L26.7289 6.16788H25.3832H24.0376L24.0822 14.8383ZM32.5511 7.3556L31.1669 8.37915V10.0412V11.7032H30.0595H28.9521V12.8102V13.9173H30.0595H31.1669V18.1489C31.1669 22.5088 31.2332 23.1009 31.8166 23.9521C32.6201 25.1245 34.529 25.6883 36.3068 25.2787C37.3775 25.032 37.4274 24.947 37.2649 23.6466L37.1617 22.8215L36.4799 22.9774C35.5517 23.1898 34.7323 23.0106 34.3377 22.5093C34.0311 22.1196 34.0145 21.8879 34.0145 18.0078V13.9173H35.5965H37.1785V12.8102V11.7032H35.6003H34.0219L33.9787 9.0176L33.9354 6.3322L32.5511 7.3556ZM60.2376 8.60704C58.755 9.13606 58.0219 10.0438 57.9315 11.4631C57.8539 12.6835 58.1828 13.5009 59.2079 14.6348L59.9282 15.4316L58.6626 16.0283C56.8925 16.8627 55.6538 18.0853 55.2869 19.3597C54.4753 22.1788 56.3992 24.9937 59.4057 25.3867C61.0831 25.6059 63.3668 24.7174 65.3355 23.0796C66.2701 22.3021 66.2765 22.2997 66.4654 22.6543C66.5699 22.8504 66.9262 23.3701 67.2571 23.8091C68.6569 25.6658 70.573 25.9121 73.09 24.5588C74.339 23.8871 74.2839 23.9383 74.0549 23.6624C73.8944 23.4693 73.7666 23.4925 73.1765 23.8223C72.368 24.2739 71.2185 24.3546 70.6738 23.998C70.473 23.8664 69.8328 22.9559 69.2511 21.9746L68.1935 20.1903L69.1978 18.8329C69.7502 18.0864 70.6719 16.7284 71.246 15.8151C71.8201 14.9018 72.4482 14.0563 72.6418 13.9361C72.8354 13.8161 73.4426 13.6818 73.9911 13.6377C74.8299 13.5705 74.9884 13.5108 74.9884 13.263C74.9884 12.9866 74.8131 12.9684 72.1408 12.9684C69.4656 12.9684 69.2932 12.9862 69.2932 13.2638C69.2932 13.4906 69.4454 13.5798 69.9478 13.6472C70.3077 13.6954 70.7105 13.8431 70.8428 13.9753C71.0579 14.1902 71.0551 14.2873 70.8152 14.8967C70.5262 15.6312 68.0512 19.3153 67.7903 19.3991C67.7033 19.4272 67.4541 19.1755 67.2366 18.8399C66.559 17.7945 65.3059 16.4474 64.136 15.5065L63.0126 14.6032L63.8055 14.1577C64.78 13.61 65.7576 12.743 66.0604 12.1578C66.1852 11.9164 66.2871 11.3772 66.2867 10.9599C66.286 9.90183 65.8485 9.2485 64.8212 8.77026C64.1142 8.4413 63.7628 8.38595 62.4115 8.39054C61.5072 8.39354 60.5759 8.48637 60.2376 8.60704ZM63.2455 9.52226C64.338 10.5284 64.3159 12.0995 63.1908 13.4136C62.8791 13.7776 62.57 14.0754 62.5037 14.0754C62.252 14.0754 61.2125 13.0628 60.754 12.3707C60.2087 11.5477 60.1288 10.7065 60.5233 9.94373C61.0092 9.00432 62.4422 8.78243 63.2455 9.52226ZM15.2788 14.3127C15.9436 16.1393 16.524 17.7583 16.5685 17.9106C16.6435 18.1669 16.4384 18.1873 13.7873 18.1873H10.9252L11.4093 16.8826C11.6753 16.1651 12.2813 14.5103 12.7555 13.2056C13.2298 11.9009 13.6584 10.7266 13.7081 10.5961C13.8228 10.2945 13.7759 10.1836 15.2788 14.3127ZM42.9715 11.7114C41.9805 11.9594 40.6066 12.771 39.8111 13.5784L39.0714 14.3291L40.059 15.1344L41.0467 15.9397L41.8793 15.179C42.9262 14.2225 43.9765 13.8442 45.2618 13.9608C45.8577 14.0147 46.3586 14.1697 46.6822 14.4C47.2769 14.8233 47.7697 15.8285 47.7745 16.6283L47.7779 17.2043L44.8117 17.2759C41.636 17.3526 40.9484 17.4921 39.9345 18.2652C38.4186 19.4211 38.2723 22.2515 39.6453 23.8552C40.353 24.6817 41.1006 25.0739 42.4385 25.3203C44.2219 25.6487 46.0249 25.1305 47.1413 23.9689C47.6221 23.4686 47.7053 23.4319 47.8026 23.6782C47.8638 23.8332 47.9189 24.2268 47.9251 24.5529L47.9361 25.146H49.2017H50.4673V20.2493C50.4673 15.7101 50.4438 15.2895 50.1451 14.4915C49.7676 13.4827 48.7687 12.4775 47.6476 11.978C46.8015 11.6012 44.0411 11.4438 42.9715 11.7114ZM60.9959 16.2677C62.6913 17.6009 64.6378 19.6604 65.6225 21.1626C65.8737 21.5458 65.865 21.5678 65.258 22.0924C64.4407 22.7987 62.9066 23.54 62.0144 23.6595C59.1499 24.0437 57.0825 21.0064 58.3704 18.3058C58.6672 17.6836 60.2584 15.9732 60.5404 15.9732C60.5849 15.9732 60.7899 16.1058 60.9959 16.2677ZM47.7745 19.7293C47.7702 20.2735 47.237 21.468 46.7794 21.9588C45.5517 23.2754 42.8334 23.4441 41.8411 22.2654C40.9609 21.2196 41.589 19.7429 43.0319 19.4658C43.4235 19.3906 44.6516 19.3213 45.7609 19.3118L47.7779 19.2944L47.7745 19.7293ZM77.3614 47.9988V61.3625H40.5007H3.64003V47.9988V34.635H40.5007H77.3614V47.9988ZM7.43684 48.5523V58.0414H11.3703C13.5336 58.0414 15.6819 57.9697 16.1442 57.8819C18.0579 57.5191 19.4865 56.5283 20.2052 55.0653C20.604 54.2532 20.6463 54.0066 20.6436 52.5061C20.6407 51.0204 20.5966 50.7623 20.2232 50.0547C19.713 49.0878 19.1191 48.5079 18.235 48.113L17.5634 47.8131L18.1973 47.3039C18.5458 47.0238 19.0222 46.4252 19.2557 45.9733C19.6089 45.29 19.6817 44.9397 19.6888 43.8869C19.7002 42.2035 19.3639 41.3465 18.3259 40.4136C16.986 39.2092 16.2434 39.0633 11.4543 39.0633H7.43684V48.5523ZM37.6531 40.4866V41.91H39.0769H40.5007V40.4866V39.0633H39.0769H37.6531V40.4866ZM15.5421 41.9729C16.3919 42.3859 16.8445 43.1989 16.8445 44.3131C16.8445 45.3426 16.5283 45.8982 15.6466 46.4173C15.1894 46.6866 14.7628 46.7416 12.7761 46.7877L10.4426 46.8416V44.2002V41.5586L12.697 41.6223C14.456 41.672 15.0812 41.7491 15.5421 41.9729ZM27.2119 44.5106C25.9482 44.7951 24.9295 45.3298 23.9558 46.2194C23.4844 46.6501 23.099 47.0488 23.0993 47.1052C23.0996 47.1619 23.528 47.5539 24.0514 47.9768L25.0028 48.7454L25.7213 48.0834C26.7476 47.1377 27.5409 46.8202 28.8891 46.8161C29.7966 46.8133 30.1144 46.8811 30.5417 47.169C31.218 47.6248 31.614 48.3075 31.7416 49.2382L31.8427 49.9757H29.7553C25.9461 49.9757 24.16 50.4808 23.2816 51.8067C22.7051 52.6769 22.533 53.7571 22.7809 54.9501C23.0166 56.0857 23.7164 56.9969 24.8389 57.6299C25.6588 58.0921 25.8047 58.1204 27.3701 58.1204C28.8081 58.1204 29.1358 58.069 29.81 57.7372C30.2384 57.5264 30.8581 57.0849 31.1871 56.7559L31.7856 56.1576L31.8922 57.0996L31.9987 58.0414H33.2439H34.4891V53.2465C34.4891 47.7084 34.4136 47.2386 33.3379 46.0719C31.931 44.5459 29.6436 43.9629 27.2119 44.5106ZM60.1176 44.5691C59.552 44.717 58.7689 45.0284 58.3774 45.2614C57.6068 45.7197 56.282 46.9457 56.3549 47.1331C56.4154 47.2882 58.0954 48.7105 58.2182 48.7105C58.2717 48.7105 58.5606 48.4527 58.8605 48.1376C59.9924 46.948 62.1042 46.4487 63.5135 47.0374C64.1901 47.3202 64.8005 48.2515 64.9332 49.2044L65.0351 49.9355L62.2995 50.0239C59.1573 50.1253 58.346 50.2806 57.3187 50.9774C56.2633 51.6929 55.9241 52.433 55.9295 54.0085C55.9346 55.5166 56.264 56.274 57.2999 57.1603C58.2174 57.9455 59.3476 58.2547 60.9864 58.1687C62.4841 58.0901 63.3083 57.7399 64.332 56.7471L64.987 56.1118L65.099 57.0766L65.211 58.0414H66.4712H67.7313L67.6816 53.0201C67.6351 48.3061 67.6117 47.9548 67.2989 47.279C66.1651 44.8293 63.2835 43.7418 60.1176 44.5691ZM37.6531 51.3199V58.0414H39.0769H40.5007V51.3199V44.5985H39.0769H37.6531V51.3199ZM42.3991 44.6966C42.3991 44.7505 42.9209 45.5157 43.5586 46.3967C45.6419 49.2755 46.8289 51.0449 46.8232 51.2635C46.82 51.3815 45.7973 52.937 44.5503 54.7202L42.2832 57.9623L43.9628 58.0089C45.3687 58.0482 45.668 58.0143 45.8004 57.8013C45.8874 57.6615 46.6019 56.5557 47.3881 55.3439L48.8176 53.1411L50.0866 55.0773C50.7844 56.1421 51.4912 57.2446 51.6573 57.5274L51.9593 58.0414H53.6631H55.367L55.0923 57.5995C54.9414 57.3566 53.9101 55.8665 52.8008 54.2881C51.6915 52.7099 50.7856 51.3253 50.788 51.2111C50.7902 51.097 51.819 49.5624 53.0742 47.8011L55.356 44.5985H53.6448H51.9337L50.3903 46.9755L48.8471 49.3526L48.5102 48.8811C48.325 48.6217 47.6156 47.552 46.9339 46.5041L45.6944 44.5985H44.0468C43.1406 44.5985 42.3991 44.6427 42.3991 44.6966ZM16.3345 49.713C17.9461 50.437 18.3781 52.8837 17.1371 54.2571C16.334 55.1456 15.4967 55.3528 12.7078 55.3528H10.4426V52.332V49.3111L13.0925 49.3791C15.1225 49.431 15.8808 49.5091 16.3345 49.713ZM31.7064 52.7828C31.4754 54.055 30.6546 55.1205 29.5504 55.5816C29.2209 55.7192 28.5044 55.8272 27.9209 55.8272C26.2605 55.8272 25.4717 55.2359 25.4717 53.9908C25.4717 52.5592 26.2339 52.2184 29.4734 52.2018L31.8141 52.1898L31.7064 52.7828ZM64.8484 52.8992C64.5005 54.7608 63.1514 55.8272 61.1443 55.8272C59.475 55.8272 58.6411 55.2203 58.6411 54.0052C58.6411 53.1819 59.0855 52.5871 59.8716 52.3587C60.1373 52.2815 61.3957 52.2119 62.6679 52.204L64.981 52.1898L64.8484 52.8992Z" fill="white"/>
</svg>
