<svg width="865" height="66" viewBox="0 0 865 66" fill="none" xmlns="http://www.w3.org/2000/svg">
<path d="M32.719 49L20.623 29.224C26.191 27.56 29.199 23.4 29.199 17.064C29.199 9.06397 24.463 4.39197 14.159 4.39197H0.207031V49H6.99103V30.056H11.023H13.839L24.719 49H32.719ZM6.99103 23.784V10.728H13.455C19.279 10.728 22.287 12.456 22.287 17.192C22.287 21.928 19.279 23.784 13.455 23.784H6.99103Z" fill="white"/>
<path d="M64.2935 32.424C64.2935 24.168 59.8135 16.872 50.0215 16.872C39.9735 16.872 35.3655 24.936 35.3655 33.384C35.3655 42.024 40.1015 49.576 50.5335 49.576C55.7175 49.576 59.6855 47.912 63.2695 44.008L58.6615 40.04C56.2935 42.728 53.6695 43.624 50.5975 43.624C45.2215 43.624 42.2135 40.36 41.9575 35.304H64.1015C64.2295 34.344 64.2935 33.384 64.2935 32.424ZM41.9575 30.248C42.2775 26.28 44.8375 22.376 50.0215 22.376C54.6935 22.376 57.8295 25.384 57.9575 29.864V30.248H41.9575Z" fill="white"/>
<path d="M79.6175 49H85.1215L97.9855 17.448H90.8175L82.3695 40.488L73.9855 17.448H66.7535L79.6175 49Z" fill="white"/>
<path d="M102.921 11.304H109.961V4.39197H102.921V11.304ZM103.177 49H109.769V17.448H103.177V49Z" fill="white"/>
<path d="M129.407 49.576C135.423 49.576 141.375 46.376 141.375 39.336C141.375 27.688 124.287 31.144 124.287 25.448C124.287 23.528 126.143 22.184 129.087 22.184C132.735 22.184 134.719 24.168 135.935 26.408L141.055 23.592C138.751 19.24 134.655 16.872 129.343 16.872C123.135 16.872 118.015 20.072 118.015 25.96C118.015 37.48 134.911 33.384 134.911 39.72C134.911 41.96 132.927 44.008 129.151 44.008C124.671 44.008 122.559 41.192 121.599 38.568L116.287 40.936C117.823 45.864 122.879 49.576 129.407 49.576Z" fill="white"/>
<path d="M164.229 43.304C162.821 43.752 161.541 44.008 160.453 44.008C157.957 44.008 156.485 42.728 156.485 40.04V22.76H164.229V17.448H156.485V4.71197L149.893 9.57597V17.448H144.709V22.76H149.893V40.616C149.893 46.952 153.861 49.576 158.853 49.576C160.581 49.576 162.437 49.256 164.293 48.68L164.229 43.304Z" fill="white"/>
<path d="M183.453 16.872C177.821 16.872 173.341 19.048 169.693 23.528L174.493 27.56C176.861 24.296 179.933 22.632 183.389 22.632C187.549 22.632 190.045 25.064 190.045 29.16V30.248H182.685C178.205 30.248 175.261 30.76 173.085 31.848C170.269 33.256 168.733 35.944 168.733 39.528C168.733 45.544 173.213 49.576 179.933 49.576C184.413 49.576 188.061 47.72 190.109 44.52L190.621 49H196.637V29.16C196.637 21.48 191.645 16.872 183.453 16.872ZM181.149 44.008C177.565 44.008 175.325 42.344 175.325 39.656C175.325 38.312 175.773 37.224 176.733 36.584C177.949 35.624 179.805 35.304 183.453 35.304H190.045V35.432C190.045 40.424 186.269 44.008 181.149 44.008Z" fill="white"/>
<path d="M242.41 4.39197V20.968C240.426 18.408 236.778 16.808 232.874 16.808C224.81 16.808 219.37 23.016 219.37 33.192C219.37 42.664 224.106 49.576 232.874 49.576C236.65 49.576 240.234 48.296 242.41 45.48V49H249.002V4.39197H242.41ZM234.346 43.56C228.714 43.56 225.962 39.528 225.962 33.256C225.962 26.792 228.842 22.76 234.41 22.76C240.17 22.76 243.05 27.24 243.05 33.256C243.05 39.144 240.298 43.56 234.346 43.56Z" fill="white"/>
<path d="M285.231 32.424C285.231 24.168 280.751 16.872 270.959 16.872C260.911 16.872 256.303 24.936 256.303 33.384C256.303 42.024 261.039 49.576 271.471 49.576C276.655 49.576 280.623 47.912 284.207 44.008L279.599 40.04C277.231 42.728 274.607 43.624 271.535 43.624C266.159 43.624 263.151 40.36 262.895 35.304H285.039C285.167 34.344 285.231 33.384 285.231 32.424ZM262.895 30.248C263.215 26.28 265.775 22.376 270.959 22.376C275.631 22.376 278.767 25.384 278.895 29.864V30.248H262.895Z" fill="white"/>
<path d="M327.943 49.576C337.287 49.576 344.263 45.032 347.463 36.84L341.063 34.408C338.951 40.04 334.343 43.048 327.943 43.048C318.919 43.048 313.607 37.032 313.607 26.6C313.607 16.232 318.855 10.28 328.071 10.28C334.471 10.28 338.951 13.16 341.063 18.728L347.335 16.296C344.135 8.16797 337.287 3.75197 328.071 3.75197C314.951 3.75197 306.759 12.584 306.759 26.664C306.759 40.68 314.951 49.576 327.943 49.576Z" fill="white"/>
<path d="M373.081 17.448V30.248C373.081 36.776 372.057 43.816 365.209 43.816C359.321 43.816 359.001 38.568 359.001 35.368V17.448H352.409V37.032C352.409 44.136 355.673 49.576 363.353 49.576C367.193 49.576 370.841 48.168 373.081 45.032V49H379.673V17.448H373.081Z" fill="white"/>
<path d="M396.208 49.576C397.68 49.576 399.344 49.256 400.944 48.68V43.304C399.984 43.624 399.088 43.752 398.32 43.752C396.656 43.752 395.824 42.92 395.824 41.256V4.39197H389.232V41.704C389.232 47.08 392.112 49.576 396.208 49.576Z" fill="white"/>
<path d="M422.729 43.304C421.321 43.752 420.041 44.008 418.953 44.008C416.457 44.008 414.985 42.728 414.985 40.04V22.76H422.729V17.448H414.985V4.71197L408.393 9.57597V17.448H403.209V22.76H408.393V40.616C408.393 46.952 412.361 49.576 417.353 49.576C419.081 49.576 420.937 49.256 422.793 48.68L422.729 43.304Z" fill="white"/>
<path d="M450.081 17.448V30.248C450.081 36.776 449.057 43.816 442.209 43.816C436.321 43.816 436.001 38.568 436.001 35.368V17.448H429.409V37.032C429.409 44.136 432.673 49.576 440.353 49.576C444.193 49.576 447.841 48.168 450.081 45.032V49H456.673V17.448H450.081Z" fill="white"/>
<path d="M481.912 16.872C478.456 16.872 474.808 18.664 473.208 22.632V17.448H466.552V49H473.144V32.552C473.144 26.28 475.896 23.144 480.632 23.144C482.104 23.144 483.32 23.528 484.536 24.232L487.736 18.472C485.816 17.32 483.96 16.872 481.912 16.872Z" fill="white"/>
<path d="M504.453 16.872C498.821 16.872 494.341 19.048 490.693 23.528L495.493 27.56C497.861 24.296 500.933 22.632 504.389 22.632C508.549 22.632 511.045 25.064 511.045 29.16V30.248H503.685C499.205 30.248 496.261 30.76 494.085 31.848C491.269 33.256 489.733 35.944 489.733 39.528C489.733 45.544 494.213 49.576 500.933 49.576C505.413 49.576 509.061 47.72 511.109 44.52L511.621 49H517.637V29.16C517.637 21.48 512.645 16.872 504.453 16.872ZM502.149 44.008C498.565 44.008 496.325 42.344 496.325 39.656C496.325 38.312 496.773 37.224 497.733 36.584C498.949 35.624 500.805 35.304 504.453 35.304H511.045V35.432C511.045 40.424 507.269 44.008 502.149 44.008Z" fill="white"/>
<path d="M565.234 6.80797H577.762C580.642 6.80797 581.938 8.46397 583.018 14.8H584.314L583.162 3.13597H581.794C581.65 3.99997 580.57 4.21597 579.562 4.21597H544.93C544.426 4.21597 543.922 4.14397 543.49 3.99997C543.058 3.85597 542.77 3.56797 542.698 3.13597H541.33L540.178 14.8H541.474C542.554 8.46397 543.85 6.80797 546.73 6.80797H559.258V42.376C559.258 46.264 557.962 47.632 553.57 47.632H550.906V49H573.586V47.632H570.922C566.53 47.632 565.234 46.264 565.234 42.376V6.80797Z" fill="white"/>
<path d="M598.697 19.336H597.617L588.257 22.576V23.728L591.641 24.376C593.513 24.736 593.873 25.096 593.873 27.904V42.376C593.873 46.192 592.289 47.632 587.897 47.632V49H603.881V47.632C600.065 47.632 598.697 46.048 598.697 43.528V19.336ZM592.649 5.87197C592.649 7.38397 594.017 8.60797 595.745 8.60797C597.473 8.60797 598.913 7.38397 598.913 5.87197C598.913 4.35997 597.473 3.13597 595.745 3.13597C594.017 3.13597 592.649 4.35997 592.649 5.87197Z" fill="white"/>
<path d="M616.104 48.064C618.84 49.072 620.712 49.504 622.656 49.504C630.864 49.504 637.92 42.016 637.92 33.304C637.92 26.248 632.88 19.912 627.264 19.912C624.384 19.912 620.568 21.784 616.104 25.168V18.256H614.664L606.96 23.008V24.376L609.264 24.952C610.992 25.384 611.28 25.96 611.28 27.328V59.08C611.28 63.184 610.128 64.408 606.456 64.408H605.736V65.776H622.728V64.408H620.928C617.904 64.408 616.104 63.328 616.104 59.728V48.064ZM616.104 26.968C618.696 24.736 621.432 23.44 623.664 23.44C627.48 23.44 633.096 27.04 633.096 36.544C633.096 42.448 629.496 47.272 624.6 47.272C621.936 47.272 618.696 45.688 616.104 43.384V26.968Z" fill="white"/>
<path d="M644.544 34.96C644.544 43.384 651.384 49.864 660.312 49.864C668.88 49.864 675.576 43.312 675.576 34.816C675.576 26.248 668.88 19.696 660.096 19.696C652.608 19.696 644.544 25.024 644.544 34.96ZM649.944 32.512C649.944 26.32 654.336 21.424 659.088 21.424C665.136 21.424 670.176 28.408 670.176 36.616C670.176 43.816 665.352 48.136 661.104 48.136C654.912 48.136 649.944 41.224 649.944 32.512Z" fill="white"/>
<path d="M711.428 21.856C708.26 22.216 705.236 22.576 701.996 22.576C700.052 20.704 697.244 19.696 693.932 19.696C686.804 19.696 681.26 24.52 681.26 30.712C681.26 34.816 683.78 37.912 688.172 39.64C685.652 41.512 680.828 41.656 680.828 44.968C680.828 47.272 683.78 49.72 687.668 50.08C684.356 54.112 679.964 54.76 679.964 58.936C679.964 62.464 683.564 65.776 691.052 65.776C704.372 65.776 710.708 58.576 710.708 53.896C710.708 52.384 710.276 50.584 708.548 48.856C706.388 46.696 703.58 46.336 695.444 46.264C688.244 46.192 685.148 45.472 685.148 43.672C685.148 42.016 688.388 41.224 689.54 40C690.836 40.432 691.484 40.576 692.852 40.576C700.844 40.576 705.452 35.464 705.452 30.136C705.452 27.832 704.66 26.32 704.228 25.528C706.964 26.032 710.348 26.32 711.428 26.392V21.856ZM700.628 30.784C700.628 35.752 697.892 39.208 693.716 39.208C688.244 39.208 686.084 33.52 686.084 29.272C686.084 22.576 690.332 21.064 693.068 21.064C697.46 21.064 700.628 24.592 700.628 30.784ZM684.428 56.56C684.428 53.752 687.092 52.744 689.108 50.368C691.196 50.656 700.268 50.728 702.14 50.944C704.732 51.16 706.964 52.528 706.964 55.192C706.964 59.728 701.204 63.76 695.084 63.76C689.18 63.76 684.428 59.944 684.428 56.56Z" fill="white"/>
<path d="M724.894 29.776C725.47 28.696 726.262 27.472 727.198 26.176C727.918 25.168 728.71 24.304 730.006 24.304C730.87 24.304 731.734 24.664 732.526 25.024C733.894 25.672 735.262 26.032 736.342 26.176L738.07 21.856C736.342 21.352 735.046 21.064 734.326 20.776C732.958 20.2 732.742 20.128 731.878 20.128C729.502 20.128 728.638 21.496 725.038 27.4H724.894V19.768H723.454L715.246 22.648V23.872L720.07 25.6V42.232C720.07 46.048 718.918 47.56 715.246 47.632V49H732.31V47.632H729.574C725.974 47.632 724.894 46.696 724.894 43.744V29.776Z" fill="white"/>
<path d="M745.631 13.864L753.263 8.75197C756.719 6.44797 758.159 5.00797 758.159 3.63997C758.159 2.41597 757.223 1.55197 755.927 1.55197C754.487 1.55197 752.759 2.77597 751.319 4.71997L744.695 13.864H745.631ZM745.487 26.68C745.199 26.032 745.127 25.744 745.127 25.312C745.127 23.8 747.215 21.784 749.591 21.784C751.175 21.784 752.687 22.72 753.623 23.872C754.847 25.312 754.847 26.464 754.847 28.48V34.168C752.327 35.68 749.951 36.544 748.439 36.904C743.831 38.056 739.943 39.568 739.943 43.96C739.943 47.488 742.463 49.864 746.639 49.864C748.583 49.864 750.023 49.576 754.991 45.472C755.063 46.624 755.351 49.864 758.303 49.864C759.527 49.864 761.543 49.072 765.431 45.904L765.071 44.824C763.271 46.336 762.335 46.408 761.543 46.408C759.671 46.408 759.671 45.112 759.671 39.352V29.704C759.671 25.96 759.671 25.024 758.591 23.512C756.575 20.704 753.191 19.696 751.031 19.696C746.351 19.696 740.375 25.528 740.375 28.048C740.375 28.408 740.447 28.624 740.591 29.056L745.487 26.68ZM754.847 44.176C750.815 46.984 749.951 47.344 748.799 47.344C746.639 47.344 744.551 45.688 744.551 43.096C744.551 40.144 746.207 39.424 750.599 37.624C752.327 36.904 753.479 36.4 754.847 35.608V44.176Z" fill="white"/>
<path d="M799.017 19.336H797.937L790.377 22.504V23.728C793.905 24.448 794.193 25.024 794.193 27.904V42.376C794.193 46.192 793.689 47.632 789.297 47.632V49H804.201V47.632C800.385 47.632 799.017 46.048 799.017 43.528V19.336ZM786.489 20.488H777.345V14.368C777.345 7.38397 782.241 3.35197 786.921 3.35197C791.817 3.35197 794.769 7.52797 795.705 7.52797C796.353 7.52797 798.801 5.65597 798.801 4.71997C798.801 3.20797 795.057 0.615967 790.233 0.615967C785.337 0.615967 780.873 3.20797 778.065 6.01597C773.817 10.264 772.881 14.008 772.521 20.488C770.937 21.352 769.209 22 767.193 22.432V23.656H772.521V42.664C772.521 46.696 771.801 47.632 767.625 47.632V49H784.905V47.632H782.673C778.641 47.632 777.345 46.696 777.345 43.384V23.656H786.921L786.489 20.488Z" fill="white"/>
<path d="M832.696 41.728C830.104 45.328 827.368 46.912 823.912 46.912C818.08 46.912 813.76 41.584 813.76 34.384C813.76 27.472 818.08 21.568 823.048 21.568C827.08 21.568 827.944 25.96 831.472 25.96C832.624 25.96 833.56 25.024 833.56 23.8C833.56 21.496 830.032 19.696 825.496 19.696C816.352 19.696 808.936 26.968 808.936 35.968C808.936 41.656 812.392 49.864 821.032 49.864C826.792 49.864 830.752 47.2 833.776 42.376L832.696 41.728Z" fill="white"/>
<path d="M844.487 26.68C844.199 26.032 844.127 25.744 844.127 25.312C844.127 23.8 846.215 21.784 848.591 21.784C850.175 21.784 851.687 22.72 852.623 23.872C853.847 25.312 853.847 26.464 853.847 28.48V34.168C851.327 35.68 848.951 36.544 847.439 36.904C842.831 38.056 838.943 39.568 838.943 43.96C838.943 47.488 841.463 49.864 845.639 49.864C847.583 49.864 849.023 49.576 853.991 45.472C854.063 46.624 854.351 49.864 857.303 49.864C858.527 49.864 860.543 49.072 864.431 45.904L864.071 44.824C862.271 46.336 861.335 46.408 860.543 46.408C858.671 46.408 858.671 45.112 858.671 39.352V29.704C858.671 25.96 858.671 25.024 857.591 23.512C855.575 20.704 852.191 19.696 850.031 19.696C845.351 19.696 839.375 25.528 839.375 28.048C839.375 28.408 839.447 28.624 839.591 29.056L844.487 26.68ZM853.847 44.176C849.815 46.984 848.951 47.344 847.799 47.344C845.639 47.344 843.551 45.688 843.551 43.096C843.551 40.144 845.207 39.424 849.599 37.624C851.327 36.904 852.479 36.4 853.847 35.608V44.176Z" fill="white"/>
</svg>
